STARTFONT 2.1
FONT -vintage-frames-NewYork10-Regular-R-Normal--12-120-72-72-P-72-MacRoman-0
SIZE 12 72 72
FONTBOUNDINGBOX 12 12 0 -2
STARTPROPERTIES 6
COMMENT "extracted by dfont-to-bdf.py from NewYork_12_raised.dfont"
FAMILY_NAME "NewYork10"
COPYRIGHT ""
PIXEL_SIZE 12
FONT_ASCENT 10
FONT_DESCENT 2
ENDPROPERTIES
CHARS 172
STARTCHAR uni0000
ENCODING 0
SWIDTH 0 0
DWIDTH 0 0
BBX 1 1 0 0
BITMAP
00
ENDCHAR
STARTCHAR uni0008
ENCODING 8
SWIDTH 0 0
DWIDTH 0 0
BBX 1 1 0 0
BITMAP
00
ENDCHAR
STARTCHAR uni0009
ENCODING 9
SWIDTH 0 0
DWIDTH 0 0
BBX 1 1 0 0
BITMAP
00
ENDCHAR
STARTCHAR uni000D
ENCODING 13
SWIDTH 0 0
DWIDTH 0 0
BBX 1 1 0 0
BITMAP
00
ENDCHAR
STARTCHAR uni001D
ENCODING 29
SWIDTH 0 0
DWIDTH 0 0
BBX 1 1 0 0
BITMAP
00
ENDCHAR
STARTCHAR uni0020
ENCODING 32
SWIDTH 250 0
DWIDTH 3 0
BBX 1 1 3 -2
BITMAP
00
ENDCHAR
STARTCHAR uni0021
ENCODING 33
SWIDTH 250 0
DWIDTH 3 0
BBX 1 8 1 0
BITMAP
80
80
80
80
80
80
00
80
ENDCHAR
STARTCHAR uni0022
ENCODING 34
SWIDTH 416 0
DWIDTH 5 0
BBX 3 2 1 6
BITMAP
A0
A0
ENDCHAR
STARTCHAR uni0023
ENCODING 35
SWIDTH 666 0
DWIDTH 8 0
BBX 7 5 0 3
BITMAP
14
7E
28
FC
50
ENDCHAR
STARTCHAR uni0024
ENCODING 36
SWIDTH 500 0
DWIDTH 6 0
BBX 5 10 0 -1
BITMAP
20
70
A8
A0
60
30
28
A8
70
20
ENDCHAR
STARTCHAR uni0025
ENCODING 37
SWIDTH 833 0
DWIDTH 10 0
BBX 8 8 1 0
BITMAP
5C
A4
A8
48
12
15
25
22
ENDCHAR
STARTCHAR uni0026
ENCODING 38
SWIDTH 666 0
DWIDTH 8 0
BBX 7 8 0 0
BITMAP
30
48
50
26
54
88
94
66
ENDCHAR
STARTCHAR uni0027
ENCODING 39
SWIDTH 250 0
DWIDTH 3 0
BBX 1 2 1 6
BITMAP
80
80
ENDCHAR
STARTCHAR uni0028
ENCODING 40
SWIDTH 416 0
DWIDTH 5 0
BBX 3 10 1 -1
BITMAP
20
40
40
80
80
80
80
40
40
20
ENDCHAR
STARTCHAR uni0029
ENCODING 41
SWIDTH 416 0
DWIDTH 5 0
BBX 3 10 1 -1
BITMAP
80
40
40
20
20
20
20
40
40
80
ENDCHAR
STARTCHAR uni002A
ENCODING 42
SWIDTH 583 0
DWIDTH 7 0
BBX 5 5 1 3
BITMAP
50
20
F8
20
50
ENDCHAR
STARTCHAR uni002B
ENCODING 43
SWIDTH 500 0
DWIDTH 6 0
BBX 5 5 0 1
BITMAP
20
20
F8
20
20
ENDCHAR
STARTCHAR uni002C
ENCODING 44
SWIDTH 250 0
DWIDTH 3 0
BBX 2 2 0 -1
BITMAP
40
80
ENDCHAR
STARTCHAR uni002D
ENCODING 45
SWIDTH 416 0
DWIDTH 5 0
BBX 4 1 0 3
BITMAP
F0
ENDCHAR
STARTCHAR uni002E
ENCODING 46
SWIDTH 250 0
DWIDTH 3 0
BBX 1 1 1 0
BITMAP
80
ENDCHAR
STARTCHAR uni002F
ENCODING 47
SWIDTH 500 0
DWIDTH 6 0
BBX 4 8 1 0
BITMAP
10
10
20
20
40
40
80
80
ENDCHAR
STARTCHAR uni0030
ENCODING 48
SWIDTH 500 0
DWIDTH 6 0
BBX 5 8 0 0
BITMAP
70
88
88
88
88
88
88
70
ENDCHAR
STARTCHAR uni0031
ENCODING 49
SWIDTH 500 0
DWIDTH 6 0
BBX 3 8 1 0
BITMAP
40
C0
40
40
40
40
40
E0
ENDCHAR
STARTCHAR uni0032
ENCODING 50
SWIDTH 500 0
DWIDTH 6 0
BBX 5 8 0 0
BITMAP
70
88
08
10
20
40
88
F8
ENDCHAR
STARTCHAR uni0033
ENCODING 51
SWIDTH 500 0
DWIDTH 6 0
BBX 5 9 0 -1
BITMAP
70
88
08
30
08
08
08
10
60
ENDCHAR
STARTCHAR uni0034
ENCODING 52
SWIDTH 500 0
DWIDTH 6 0
BBX 5 8 0 0
BITMAP
10
20
50
90
F8
10
10
38
ENDCHAR
STARTCHAR uni0035
ENCODING 53
SWIDTH 500 0
DWIDTH 6 0
BBX 5 9 0 -1
BITMAP
F0
80
E0
10
08
08
08
10
E0
ENDCHAR
STARTCHAR uni0036
ENCODING 54
SWIDTH 500 0
DWIDTH 6 0
BBX 5 8 0 0
BITMAP
30
40
80
F0
88
88
88
70
ENDCHAR
STARTCHAR uni0037
ENCODING 55
SWIDTH 500 0
DWIDTH 6 0
BBX 5 8 0 0
BITMAP
F8
88
08
10
10
20
20
20
ENDCHAR
STARTCHAR uni0038
ENCODING 56
SWIDTH 500 0
DWIDTH 6 0
BBX 5 8 0 0
BITMAP
70
88
88
70
88
88
88
70
ENDCHAR
STARTCHAR uni0039
ENCODING 57
SWIDTH 500 0
DWIDTH 6 0
BBX 5 8 0 0
BITMAP
70
88
88
88
78
08
10
60
ENDCHAR
STARTCHAR uni003A
ENCODING 58
SWIDTH 250 0
DWIDTH 3 0
BBX 1 5 1 0
BITMAP
80
00
00
00
80
ENDCHAR
STARTCHAR uni003B
ENCODING 59
SWIDTH 250 0
DWIDTH 3 0
BBX 2 6 0 -1
BITMAP
40
00
00
00
40
80
ENDCHAR
STARTCHAR uni003C
ENCODING 60
SWIDTH 333 0
DWIDTH 4 0
BBX 3 5 0 1
BITMAP
20
40
80
40
20
ENDCHAR
STARTCHAR uni003D
ENCODING 61
SWIDTH 416 0
DWIDTH 5 0
BBX 4 3 0 2
BITMAP
F0
00
F0
ENDCHAR
STARTCHAR uni003E
ENCODING 62
SWIDTH 333 0
DWIDTH 4 0
BBX 3 5 0 1
BITMAP
80
40
20
40
80
ENDCHAR
STARTCHAR uni003F
ENCODING 63
SWIDTH 500 0
DWIDTH 6 0
BBX 4 8 1 0
BITMAP
60
90
10
20
40
40
00
40
ENDCHAR
STARTCHAR uni0040
ENCODING 64
SWIDTH 666 0
DWIDTH 8 0
BBX 7 8 1 -1
BITMAP
38
44
9A
AA
AA
9C
40
38
ENDCHAR
STARTCHAR uni0041
ENCODING 65
SWIDTH 666 0
DWIDTH 8 0
BBX 7 8 0 0
BITMAP
10
10
10
28
28
7C
44
EE
ENDCHAR
STARTCHAR uni0042
ENCODING 66
SWIDTH 583 0
DWIDTH 7 0
BBX 6 8 0 0
BITMAP
F8
44
44
78
44
44
44
F8
ENDCHAR
STARTCHAR uni0043
ENCODING 67
SWIDTH 500 0
DWIDTH 6 0
BBX 5 8 0 0
BITMAP
70
88
80
80
80
80
88
70
ENDCHAR
STARTCHAR uni0044
ENCODING 68
SWIDTH 583 0
DWIDTH 7 0
BBX 6 8 0 0
BITMAP
F0
48
44
44
44
44
48
F0
ENDCHAR
STARTCHAR uni0045
ENCODING 69
SWIDTH 500 0
DWIDTH 6 0
BBX 5 8 0 0
BITMAP
F8
48
40
70
40
40
48
F8
ENDCHAR
STARTCHAR uni0046
ENCODING 70
SWIDTH 500 0
DWIDTH 6 0
BBX 5 8 0 0
BITMAP
F8
48
40
70
40
40
40
F0
ENDCHAR
STARTCHAR uni0047
ENCODING 71
SWIDTH 583 0
DWIDTH 7 0
BBX 6 8 0 0
BITMAP
70
88
80
80
9C
88
88
70
ENDCHAR
STARTCHAR uni0048
ENCODING 72
SWIDTH 666 0
DWIDTH 8 0
BBX 7 8 0 0
BITMAP
EE
44
44
7C
44
44
44
EE
ENDCHAR
STARTCHAR uni0049
ENCODING 73
SWIDTH 416 0
DWIDTH 5 0
BBX 3 8 1 0
BITMAP
E0
40
40
40
40
40
40
E0
ENDCHAR
STARTCHAR uni004A
ENCODING 74
SWIDTH 416 0
DWIDTH 5 0
BBX 5 10 0 -2
BITMAP
38
10
10
10
10
10
10
10
90
60
ENDCHAR
STARTCHAR uni004B
ENCODING 75
SWIDTH 666 0
DWIDTH 8 0
BBX 7 8 0 0
BITMAP
EE
48
50
60
60
50
48
EE
ENDCHAR
STARTCHAR uni004C
ENCODING 76
SWIDTH 583 0
DWIDTH 7 0
BBX 6 8 0 0
BITMAP
E0
40
40
40
40
40
44
FC
ENDCHAR
STARTCHAR uni004D
ENCODING 77
SWIDTH 833 0
DWIDTH 10 0
BBX 9 8 0 0
BITMAP
E380
6300
6300
5500
5500
5500
4900
EB80
ENDCHAR
STARTCHAR uni004E
ENCODING 78
SWIDTH 666 0
DWIDTH 8 0
BBX 7 8 0 0
BITMAP
CE
64
64
54
54
4C
4C
E4
ENDCHAR
STARTCHAR uni004F
ENCODING 79
SWIDTH 500 0
DWIDTH 6 0
BBX 5 8 0 0
BITMAP
70
88
88
88
88
88
88
70
ENDCHAR
STARTCHAR uni0050
ENCODING 80
SWIDTH 583 0
DWIDTH 7 0
BBX 6 8 0 0
BITMAP
F8
44
44
44
78
40
40
E0
ENDCHAR
STARTCHAR uni0051
ENCODING 81
SWIDTH 500 0
DWIDTH 6 0
BBX 5 10 0 -2
BITMAP
70
88
88
88
88
88
88
70
10
08
ENDCHAR
STARTCHAR uni0052
ENCODING 82
SWIDTH 666 0
DWIDTH 8 0
BBX 7 8 0 0
BITMAP
F8
44
44
44
78
50
48
E6
ENDCHAR
STARTCHAR uni0053
ENCODING 83
SWIDTH 500 0
DWIDTH 6 0
BBX 5 8 0 0
BITMAP
78
88
80
60
10
08
88
F0
ENDCHAR
STARTCHAR uni0054
ENCODING 84
SWIDTH 500 0
DWIDTH 6 0
BBX 5 8 0 0
BITMAP
F8
A8
20
20
20
20
20
70
ENDCHAR
STARTCHAR uni0055
ENCODING 85
SWIDTH 666 0
DWIDTH 8 0
BBX 7 8 0 0
BITMAP
EE
44
44
44
44
44
44
38
ENDCHAR
STARTCHAR uni0056
ENCODING 86
SWIDTH 666 0
DWIDTH 8 0
BBX 7 8 0 0
BITMAP
EE
44
44
44
28
28
10
10
ENDCHAR
STARTCHAR uni0057
ENCODING 87
SWIDTH 833 0
DWIDTH 10 0
BBX 9 8 0 0
BITMAP
FB80
5100
5100
2A00
2A00
2A00
1400
1400
ENDCHAR
STARTCHAR uni0058
ENCODING 88
SWIDTH 500 0
DWIDTH 6 0
BBX 5 8 0 0
BITMAP
D8
50
50
20
20
50
50
D8
ENDCHAR
STARTCHAR uni0059
ENCODING 89
SWIDTH 666 0
DWIDTH 8 0
BBX 7 8 0 0
BITMAP
EE
44
28
28
10
10
10
38
ENDCHAR
STARTCHAR uni005A
ENCODING 90
SWIDTH 500 0
DWIDTH 6 0
BBX 5 8 0 0
BITMAP
F8
88
10
20
20
40
88
F8
ENDCHAR
STARTCHAR uni005B
ENCODING 91
SWIDTH 333 0
DWIDTH 4 0
BBX 2 10 1 -1
BITMAP
C0
80
80
80
80
80
80
80
80
C0
ENDCHAR
STARTCHAR uni005C
ENCODING 92
SWIDTH 500 0
DWIDTH 6 0
BBX 4 8 1 0
BITMAP
80
80
40
40
20
20
10
10
ENDCHAR
STARTCHAR uni005D
ENCODING 93
SWIDTH 333 0
DWIDTH 4 0
BBX 2 10 2 -1
BITMAP
C0
40
40
40
40
40
40
40
40
C0
ENDCHAR
STARTCHAR uni005E
ENCODING 94
SWIDTH 416 0
DWIDTH 5 0
BBX 3 2 1 6
BITMAP
40
A0
ENDCHAR
STARTCHAR uni005F
ENCODING 95
SWIDTH 500 0
DWIDTH 6 0
BBX 6 1 0 0
BITMAP
FC
ENDCHAR
STARTCHAR uni0060
ENCODING 96
SWIDTH 250 0
DWIDTH 3 0
BBX 2 2 0 6
BITMAP
80
40
ENDCHAR
STARTCHAR uni0061
ENCODING 97
SWIDTH 500 0
DWIDTH 6 0
BBX 6 6 0 0
BITMAP
70
88
78
88
88
74
ENDCHAR
STARTCHAR uni0062
ENCODING 98
SWIDTH 583 0
DWIDTH 7 0
BBX 6 8 0 0
BITMAP
40
C0
70
48
44
44
48
70
ENDCHAR
STARTCHAR uni0063
ENCODING 99
SWIDTH 500 0
DWIDTH 6 0
BBX 5 6 0 0
BITMAP
30
48
80
80
48
30
ENDCHAR
STARTCHAR uni0064
ENCODING 100
SWIDTH 500 0
DWIDTH 6 0
BBX 5 8 0 0
BITMAP
18
08
38
48
88
88
48
38
ENDCHAR
STARTCHAR uni0065
ENCODING 101
SWIDTH 500 0
DWIDTH 6 0
BBX 5 6 0 0
BITMAP
70
88
F8
80
88
70
ENDCHAR
STARTCHAR uni0066
ENCODING 102
SWIDTH 416 0
DWIDTH 5 0
BBX 5 8 0 0
BITMAP
30
48
E0
40
40
40
40
E0
ENDCHAR
STARTCHAR uni0067
ENCODING 103
SWIDTH 583 0
DWIDTH 7 0
BBX 6 8 0 -2
BITMAP
74
88
88
70
80
78
84
78
ENDCHAR
STARTCHAR uni0068
ENCODING 104
SWIDTH 666 0
DWIDTH 8 0
BBX 7 8 0 0
BITMAP
C0
40
58
64
44
44
44
EE
ENDCHAR
STARTCHAR uni0069
ENCODING 105
SWIDTH 333 0
DWIDTH 4 0
BBX 3 8 0 0
BITMAP
40
00
40
C0
40
40
40
E0
ENDCHAR
STARTCHAR uni006A
ENCODING 106
SWIDTH 333 0
DWIDTH 4 0
BBX 2 10 0 -2
BITMAP
40
00
40
C0
40
40
40
40
40
80
ENDCHAR
STARTCHAR uni006B
ENCODING 107
SWIDTH 583 0
DWIDTH 7 0
BBX 6 8 0 0
BITMAP
40
C0
4C
50
60
50
48
EC
ENDCHAR
STARTCHAR uni006C
ENCODING 108
SWIDTH 333 0
DWIDTH 4 0
BBX 3 8 0 0
BITMAP
40
C0
40
40
40
40
40
E0
ENDCHAR
STARTCHAR uni006D
ENCODING 109
SWIDTH 833 0
DWIDTH 10 0
BBX 9 6 0 0
BITMAP
7600
C900
4900
4900
4900
FF80
ENDCHAR
STARTCHAR uni006E
ENCODING 110
SWIDTH 666 0
DWIDTH 8 0
BBX 7 6 0 0
BITMAP
58
E4
44
44
44
EE
ENDCHAR
STARTCHAR uni006F
ENCODING 111
SWIDTH 500 0
DWIDTH 6 0
BBX 5 6 0 0
BITMAP
70
88
88
88
88
70
ENDCHAR
STARTCHAR uni0070
ENCODING 112
SWIDTH 583 0
DWIDTH 7 0
BBX 6 8 0 -2
BITMAP
70
C8
44
44
48
70
40
E0
ENDCHAR
STARTCHAR uni0071
ENCODING 113
SWIDTH 583 0
DWIDTH 7 0
BBX 6 8 0 -2
BITMAP
3C
48
88
88
48
38
08
1C
ENDCHAR
STARTCHAR uni0072
ENCODING 114
SWIDTH 500 0
DWIDTH 6 0
BBX 5 6 0 0
BITMAP
58
E8
40
40
40
E0
ENDCHAR
STARTCHAR uni0073
ENCODING 115
SWIDTH 416 0
DWIDTH 5 0
BBX 4 6 0 0
BITMAP
70
90
40
20
90
E0
ENDCHAR
STARTCHAR uni0074
ENCODING 116
SWIDTH 333 0
DWIDTH 4 0
BBX 3 7 0 0
BITMAP
40
E0
40
40
40
40
20
ENDCHAR
STARTCHAR uni0075
ENCODING 117
SWIDTH 583 0
DWIDTH 7 0
BBX 7 6 0 0
BITMAP
CC
44
44
44
4E
34
ENDCHAR
STARTCHAR uni0076
ENCODING 118
SWIDTH 583 0
DWIDTH 7 0
BBX 7 6 0 0
BITMAP
EE
44
28
28
10
10
ENDCHAR
STARTCHAR uni0077
ENCODING 119
SWIDTH 750 0
DWIDTH 9 0
BBX 9 6 0 0
BITMAP
FD80
5100
2A00
2A00
1400
1400
ENDCHAR
STARTCHAR uni0078
ENCODING 120
SWIDTH 500 0
DWIDTH 6 0
BBX 5 6 0 0
BITMAP
D8
50
20
20
50
D8
ENDCHAR
STARTCHAR uni0079
ENCODING 121
SWIDTH 583 0
DWIDTH 7 0
BBX 7 8 0 -2
BITMAP
EE
44
28
28
10
10
20
20
ENDCHAR
STARTCHAR uni007A
ENCODING 122
SWIDTH 416 0
DWIDTH 5 0
BBX 4 6 0 0
BITMAP
F0
90
20
40
90
F0
ENDCHAR
STARTCHAR uni007B
ENCODING 123
SWIDTH 416 0
DWIDTH 5 0
BBX 3 11 0 -2
BITMAP
20
40
40
40
40
80
40
40
40
40
20
ENDCHAR
STARTCHAR uni007C
ENCODING 124
SWIDTH 250 0
DWIDTH 3 0
BBX 1 11 1 -2
BITMAP
80
80
80
80
80
80
80
80
80
80
80
ENDCHAR
STARTCHAR uni007D
ENCODING 125
SWIDTH 416 0
DWIDTH 5 0
BBX 3 11 2 -2
BITMAP
80
40
40
40
40
20
40
40
40
40
80
ENDCHAR
STARTCHAR uni007E
ENCODING 126
SWIDTH 416 0
DWIDTH 5 0
BBX 4 2 0 6
BITMAP
50
A0
ENDCHAR
STARTCHAR uni007F
ENCODING 127
SWIDTH 0 0
DWIDTH 0 0
BBX 1 1 0 -2
BITMAP
00
ENDCHAR
STARTCHAR uni00C4
ENCODING 128
SWIDTH 666 0
DWIDTH 8 0
BBX 7 9 0 0
BITMAP
28
00
10
10
28
28
7C
44
EE
ENDCHAR
STARTCHAR uni00C5
ENCODING 129
SWIDTH 666 0
DWIDTH 8 0
BBX 7 10 0 0
BITMAP
38
44
38
10
10
28
28
7C
44
EE
ENDCHAR
STARTCHAR uni00C7
ENCODING 130
SWIDTH 500 0
DWIDTH 6 0
BBX 5 10 0 -2
BITMAP
70
88
80
80
80
80
88
70
20
40
ENDCHAR
STARTCHAR uni00C9
ENCODING 131
SWIDTH 500 0
DWIDTH 6 0
BBX 5 10 0 0
BITMAP
10
20
F8
48
40
70
40
40
48
F8
ENDCHAR
STARTCHAR uni00D1
ENCODING 132
SWIDTH 666 0
DWIDTH 8 0
BBX 7 10 0 0
BITMAP
34
58
CE
64
64
54
54
4C
4C
E4
ENDCHAR
STARTCHAR uni00D6
ENCODING 133
SWIDTH 500 0
DWIDTH 6 0
BBX 5 10 0 0
BITMAP
50
00
70
88
88
88
88
88
88
70
ENDCHAR
STARTCHAR uni00DC
ENCODING 134
SWIDTH 666 0
DWIDTH 8 0
BBX 7 10 0 0
BITMAP
28
00
EE
44
44
44
44
44
44
38
ENDCHAR
STARTCHAR uni00E1
ENCODING 135
SWIDTH 500 0
DWIDTH 6 0
BBX 6 9 0 0
BITMAP
10
20
00
70
88
78
88
88
74
ENDCHAR
STARTCHAR uni00E0
ENCODING 136
SWIDTH 500 0
DWIDTH 6 0
BBX 6 9 0 0
BITMAP
40
20
00
70
88
78
88
88
74
ENDCHAR
STARTCHAR uni00E2
ENCODING 137
SWIDTH 500 0
DWIDTH 6 0
BBX 6 9 0 0
BITMAP
20
50
00
70
88
78
88
88
74
ENDCHAR
STARTCHAR uni00E4
ENCODING 138
SWIDTH 500 0
DWIDTH 6 0
BBX 6 8 0 0
BITMAP
50
00
70
88
78
88
88
74
ENDCHAR
STARTCHAR uni00E3
ENCODING 139
SWIDTH 500 0
DWIDTH 6 0
BBX 6 9 0 0
BITMAP
28
50
00
70
88
78
88
88
74
ENDCHAR
STARTCHAR uni00E5
ENCODING 140
SWIDTH 500 0
DWIDTH 6 0
BBX 6 10 0 0
BITMAP
30
48
30
00
70
88
78
88
88
74
ENDCHAR
STARTCHAR uni00E7
ENCODING 141
SWIDTH 500 0
DWIDTH 6 0
BBX 5 8 0 -2
BITMAP
30
48
80
80
48
30
10
20
ENDCHAR
STARTCHAR uni00E9
ENCODING 142
SWIDTH 500 0
DWIDTH 6 0
BBX 5 9 0 0
BITMAP
10
20
00
70
88
F8
80
88
70
ENDCHAR
STARTCHAR uni00E8
ENCODING 143
SWIDTH 500 0
DWIDTH 6 0
BBX 5 9 0 0
BITMAP
40
20
00
70
88
F8
80
88
70
ENDCHAR
STARTCHAR uni00EA
ENCODING 144
SWIDTH 500 0
DWIDTH 6 0
BBX 5 9 0 0
BITMAP
20
50
00
70
88
F8
80
88
70
ENDCHAR
STARTCHAR uni00EB
ENCODING 145
SWIDTH 500 0
DWIDTH 6 0
BBX 5 8 0 0
BITMAP
50
00
70
88
F8
80
88
70
ENDCHAR
STARTCHAR uni00ED
ENCODING 146
SWIDTH 333 0
DWIDTH 4 0
BBX 3 9 0 0
BITMAP
40
80
00
40
C0
40
40
40
E0
ENDCHAR
STARTCHAR uni00EC
ENCODING 147
SWIDTH 333 0
DWIDTH 4 0
BBX 3 9 0 0
BITMAP
80
40
00
40
C0
40
40
40
E0
ENDCHAR
STARTCHAR uni00EE
ENCODING 148
SWIDTH 333 0
DWIDTH 4 0
BBX 3 9 0 0
BITMAP
40
A0
00
40
C0
40
40
40
E0
ENDCHAR
STARTCHAR uni00EF
ENCODING 149
SWIDTH 333 0
DWIDTH 4 0
BBX 3 8 0 0
BITMAP
A0
00
40
C0
40
40
40
E0
ENDCHAR
STARTCHAR uni00F1
ENCODING 150
SWIDTH 666 0
DWIDTH 8 0
BBX 7 9 0 0
BITMAP
28
50
00
58
E4
44
44
44
EE
ENDCHAR
STARTCHAR uni00F3
ENCODING 151
SWIDTH 500 0
DWIDTH 6 0
BBX 5 9 0 0
BITMAP
10
20
00
70
88
88
88
88
70
ENDCHAR
STARTCHAR uni00F2
ENCODING 152
SWIDTH 500 0
DWIDTH 6 0
BBX 5 9 0 0
BITMAP
40
20
00
70
88
88
88
88
70
ENDCHAR
STARTCHAR uni00F4
ENCODING 153
SWIDTH 500 0
DWIDTH 6 0
BBX 5 9 0 0
BITMAP
20
50
00
70
88
88
88
88
70
ENDCHAR
STARTCHAR uni00F6
ENCODING 154
SWIDTH 500 0
DWIDTH 6 0
BBX 5 8 0 0
BITMAP
50
00
70
88
88
88
88
70
ENDCHAR
STARTCHAR uni00F5
ENCODING 155
SWIDTH 500 0
DWIDTH 6 0
BBX 5 9 0 0
BITMAP
28
50
00
70
88
88
88
88
70
ENDCHAR
STARTCHAR uni00FA
ENCODING 156
SWIDTH 583 0
DWIDTH 7 0
BBX 7 9 0 0
BITMAP
10
20
00
CC
44
44
44
4E
34
ENDCHAR
STARTCHAR uni00F9
ENCODING 157
SWIDTH 583 0
DWIDTH 7 0
BBX 7 9 0 0
BITMAP
20
10
00
CC
44
44
44
4E
34
ENDCHAR
STARTCHAR uni00FB
ENCODING 158
SWIDTH 583 0
DWIDTH 7 0
BBX 7 9 0 0
BITMAP
10
28
00
CC
44
44
44
4E
34
ENDCHAR
STARTCHAR uni00FC
ENCODING 159
SWIDTH 583 0
DWIDTH 7 0
BBX 7 8 0 0
BITMAP
28
00
CC
44
44
44
4E
34
ENDCHAR
STARTCHAR uni2020
ENCODING 160
SWIDTH 416 0
DWIDTH 5 0
BBX 3 5 1 4
BITMAP
40
E0
40
40
40
ENDCHAR
STARTCHAR uni00B0
ENCODING 161
SWIDTH 500 0
DWIDTH 6 0
BBX 4 4 1 5
BITMAP
60
90
90
60
ENDCHAR
STARTCHAR uni00A2
ENCODING 162
SWIDTH 500 0
DWIDTH 6 0
BBX 5 8 0 -1
BITMAP
20
70
A8
A0
A0
A8
70
20
ENDCHAR
STARTCHAR uni00A3
ENCODING 163
SWIDTH 583 0
DWIDTH 7 0
BBX 6 8 0 0
BITMAP
30
48
40
F0
40
40
44
F8
ENDCHAR
STARTCHAR uni00A7
ENCODING 164
SWIDTH 500 0
DWIDTH 6 0
BBX 5 9 0 0
BITMAP
70
88
80
70
88
70
08
88
70
ENDCHAR
STARTCHAR uni2022
ENCODING 165
SWIDTH 500 0
DWIDTH 6 0
BBX 5 5 0 1
BITMAP
70
F8
F8
F8
70
ENDCHAR
STARTCHAR uni00B6
ENCODING 166
SWIDTH 666 0
DWIDTH 8 0
BBX 7 8 0 0
BITMAP
7E
94
94
94
74
14
14
3E
ENDCHAR
STARTCHAR uni00DF
ENCODING 167
SWIDTH 583 0
DWIDTH 7 0
BBX 6 8 0 0
BITMAP
38
44
44
58
44
44
44
98
ENDCHAR
STARTCHAR uni00AE
ENCODING 168
SWIDTH 583 0
DWIDTH 7 0
BBX 6 7 0 0
BITMAP
78
84
B4
B4
B4
84
78
ENDCHAR
STARTCHAR uni00A9
ENCODING 169
SWIDTH 583 0
DWIDTH 7 0
BBX 6 7 0 0
BITMAP
78
84
B4
A4
B4
84
78
ENDCHAR
STARTCHAR uni2122
ENCODING 170
SWIDTH 750 0
DWIDTH 9 0
BBX 8 3 0 5
BITMAP
F1
5B
55
ENDCHAR
STARTCHAR uni00B4
ENCODING 171
SWIDTH 250 0
DWIDTH 3 0
BBX 2 2 0 6
BITMAP
40
80
ENDCHAR
STARTCHAR uni00A8
ENCODING 172
SWIDTH 416 0
DWIDTH 5 0
BBX 3 1 1 7
BITMAP
A0
ENDCHAR
STARTCHAR uni00C6
ENCODING 174
SWIDTH 833 0
DWIDTH 10 0
BBX 9 8 0 0
BITMAP
0F80
1480
1400
2700
3C00
4400
4480
EF80
ENDCHAR
STARTCHAR uni00D8
ENCODING 175
SWIDTH 583 0
DWIDTH 7 0
BBX 7 8 0 0
BITMAP
3A
44
4C
54
54
64
44
B8
ENDCHAR
STARTCHAR uni00A5
ENCODING 180
SWIDTH 583 0
DWIDTH 7 0
BBX 5 8 1 0
BITMAP
88
50
F8
20
F8
20
20
20
ENDCHAR
STARTCHAR uni00AA
ENCODING 187
SWIDTH 500 0
DWIDTH 6 0
BBX 4 6 0 2
BITMAP
70
90
90
70
00
F0
ENDCHAR
STARTCHAR uni00BA
ENCODING 188
SWIDTH 416 0
DWIDTH 5 0
BBX 4 6 0 2
BITMAP
60
90
90
60
00
F0
ENDCHAR
STARTCHAR uni00E6
ENCODING 190
SWIDTH 750 0
DWIDTH 9 0
BBX 8 6 0 0
BITMAP
7E
91
7F
90
91
7E
ENDCHAR
STARTCHAR uni00F8
ENCODING 191
SWIDTH 583 0
DWIDTH 7 0
BBX 7 6 0 0
BITMAP
3A
4C
54
64
64
B8
ENDCHAR
STARTCHAR uni00BF
ENCODING 192
SWIDTH 500 0
DWIDTH 6 0
BBX 5 8 0 0
BITMAP
20
00
20
20
40
80
88
70
ENDCHAR
STARTCHAR uni00A1
ENCODING 193
SWIDTH 250 0
DWIDTH 3 0
BBX 1 8 1 0
BITMAP
80
00
80
80
80
80
80
80
ENDCHAR
STARTCHAR uni00AB
ENCODING 199
SWIDTH 500 0
DWIDTH 6 0
BBX 5 5 0 0
BITMAP
28
50
A0
50
28
ENDCHAR
STARTCHAR uni00BB
ENCODING 200
SWIDTH 500 0
DWIDTH 6 0
BBX 5 5 1 0
BITMAP
A0
50
28
50
A0
ENDCHAR
STARTCHAR uni2026
ENCODING 201
SWIDTH 583 0
DWIDTH 7 0
BBX 5 1 1 0
BITMAP
A8
ENDCHAR
STARTCHAR uni00C0
ENCODING 203
SWIDTH 666 0
DWIDTH 8 0
BBX 7 10 0 0
BITMAP
10
08
00
10
10
28
28
7C
44
EE
ENDCHAR
STARTCHAR uni00C3
ENCODING 204
SWIDTH 666 0
DWIDTH 8 0
BBX 7 10 1 0
BITMAP
14
28
00
10
10
28
28
7C
44
EE
ENDCHAR
STARTCHAR uni00D5
ENCODING 205
SWIDTH 500 0
DWIDTH 6 0
BBX 5 10 0 0
BITMAP
28
50
00
70
88
88
88
88
88
70
ENDCHAR
STARTCHAR uni0152
ENCODING 206
SWIDTH 833 0
DWIDTH 10 0
BBX 8 8 1 0
BITMAP
7F
89
88
8E
88
88
89
7F
ENDCHAR
STARTCHAR uni0153
ENCODING 207
SWIDTH 750 0
DWIDTH 9 0
BBX 8 6 0 0
BITMAP
6E
91
9F
90
91
6E
ENDCHAR
STARTCHAR uni2013
ENCODING 208
SWIDTH 333 0
DWIDTH 4 0
BBX 3 1 0 3
BITMAP
E0
ENDCHAR
STARTCHAR uni2014
ENCODING 209
SWIDTH 583 0
DWIDTH 7 0
BBX 6 1 0 3
BITMAP
FC
ENDCHAR
STARTCHAR uni201C
ENCODING 210
SWIDTH 500 0
DWIDTH 6 0
BBX 5 2 0 6
BITMAP
90
48
ENDCHAR
STARTCHAR uni201D
ENCODING 211
SWIDTH 500 0
DWIDTH 6 0
BBX 5 2 1 6
BITMAP
48
90
ENDCHAR
STARTCHAR uni2018
ENCODING 212
SWIDTH 333 0
DWIDTH 4 0
BBX 2 2 1 6
BITMAP
80
40
ENDCHAR
STARTCHAR uni2019
ENCODING 213
SWIDTH 333 0
DWIDTH 4 0
BBX 2 2 1 6
BITMAP
40
80
ENDCHAR
STARTCHAR uni25CA
ENCODING 215
SWIDTH 583 0
DWIDTH 7 0
BBX 5 5 1 1
BITMAP
20
50
88
50
20
ENDCHAR
STARTCHAR uni00FF
ENCODING 216
SWIDTH 583 0
DWIDTH 7 0
BBX 7 10 0 -2
BITMAP
28
00
EE
44
28
28
10
10
20
20
ENDCHAR
STARTCHAR uni0178
ENCODING 217
SWIDTH 500 0
DWIDTH 6 0
BBX 6 3 0 1
BITMAP
C0
24
18
ENDCHAR
ENDFONT
